<svg xmlns="http://www.w3.org/2000/svg" width="36" height="31" viewBox="0 0 36 31"><path fill="#fff" d="M20.25 25.39v-2.3h-1.53v2.33l-5.02 4.1a.76.76 0 0 0-.1 1.07.8.8 0 0 0 .59.27c.13 0 .32-.03.49-.18l4.04-3.3v2.78c0 .42.34.76.76.76.43 0 .77-.34.77-.76v-2.81l4.07 3.33a.76.76 0 0 0 1.08-.1.75.75 0 0 0-.1-1.06zM34.24.8H11.18l.21.38c.17.3.31.62.42.95l.06.17h19.89v15.39a2 2 0 0 1-2.01 1.98H12.24v-6.31c0-.72-.22-1.41-.64-2a3.57 3.57 0 0 0-2.94-1.53H3.58A3.58 3.58 0 0 0 0 13.36v6.6c0 .71.22 1.4.63 1.99.25.36.56.67.92.92.3.19.61.35.95.45l.11.04V31h1.53v-9.02h-.56a2.1 2.1 0 0 1-.94-.23 2.01 2.01 0 0 1-1.12-1.79v-6.6c0-1.12.92-2.02 2.06-2.02h5.08c1.13 0 2.05.9 2.05 2.02v6.6a2.02 2.02 0 0 1-1.14 1.8c-.29.14-.6.22-.91.22h-.57V31h1.53v-7.64l.11-.04c.33-.1.65-.26.95-.45a3.87 3.87 0 0 0 1.3-1.6l.04-.09h17.73a3.52 3.52 0 0 0 3.54-3.49V2.3h.95c.42 0 .77-.33.77-.75a.76.76 0 0 0-.77-.75zM6.11 8a4.03 4.03 0 0 0 4.06-4c0-2.2-1.82-4-4.06-4a4.04 4.04 0 0 0-4.05 4c0 2.21 1.82 4 4.05 4zM3.59 4a2.51 2.51 0 0 1 2.52-2.49c1.4 0 2.53 1.12 2.53 2.49 0 1.38-1.13 2.5-2.53 2.5A2.51 2.51 0 0 1 3.59 4z"/></svg>