<svg xmlns="http://www.w3.org/2000/svg" width="40" height="32" viewBox="0 0 40 32"><path fill="#757371" d="M4.08 28.04l-.26-.21-1.65 2.96a.81.81 0 0 0 .31 1.1.8.8 0 0 0 1.09-.31l1.54-2.75-.2-.15c-.28-.2-.56-.42-.83-.64zm21.56-.16l-.25.21c-.28.23-.56.44-.83.64l-.21.15 1.51 2.7a.82.82 0 0 0 1.1.31.85.85 0 0 0 .38-.49.82.82 0 0 0-.08-.61zm1.98-10.16a13.27 13.27 0 0 1-12.85 10.4A13.23 13.23 0 0 1 1.6 14.87c0-7.31 5.91-13.25 13.17-13.25 6.09 0 11.49 4.34 12.83 10.32l.05.21h1.64l-.07-.33A14.83 14.83 0 0 0 14.77 0 14.83 14.83 0 0 0 0 14.87c0 8.19 6.62 14.86 14.77 14.86 7 0 13.09-5 14.47-11.9l.06-.33h-1.63zm-5.79-5.74l.07.17h1.7l-.13-.37a9.25 9.25 0 0 0-8.7-6.21 9.28 9.28 0 0 0-9.24 9.3 9.22 9.22 0 1 0 17.97 3l.13-.37h-1.7l-.07.17a7.68 7.68 0 0 1-7.09 4.88 7.68 7.68 0 1 1 0-15.37 7.7 7.7 0 0 1 7.06 4.8zm17.18-.45a.79.79 0 0 0-.29-.55.8.8 0 0 0-1.13.1l-2.35 2.81-.09.13h-2.72l1.59-1.9a.8.8 0 0 0-.61-1.33.8.8 0 0 0-.61.28l-2.4 2.87-.06.08H15.71a.8.8 0 0 0 0 1.61h14.48l.05.1.1.17 2.46 2.92a.8.8 0 0 0 .61.28.8.8 0 0 0 .61-1.32l-1.8-2.15h2.77l.04.1c.04.07.07.13.11.17l2.45 2.92a.82.82 0 0 0 1.14.09.82.82 0 0 0 .28-.55.81.81 0 0 0-.19-.58l-2.38-2.82 2.38-2.85c.14-.16.2-.37.19-.58zm-23.3.62h1.99l-.72-.5a3.82 3.82 0 0 0-2.21-.7 3.92 3.92 0 0 0 0 7.83c.85 0 1.65-.27 2.33-.78l.66-.5h-2.05c-.71 0-1.38-.28-1.88-.79a2.62 2.62 0 0 1-.74-2.27 2.67 2.67 0 0 1 2.62-2.29z"/></svg>