<svg xmlns="http://www.w3.org/2000/svg" width="30" height="39" viewBox="0 0 30 39"><path fill="#fff" d="M16.04 8.53l-.16-.01V5.23h-1.71v3.29l-.17.01c-7.85.5-14 6.97-14 14.72 0 8.14 6.73 14.76 15 14.76s14.99-6.62 14.99-14.76A14.9 14.9 0 0 0 16.04 8.53zm7.44 21.79a.88.88 0 0 0-1.21 0 .83.83 0 0 0 0 1.19l1.54 1.51-.14.12a13.26 13.26 0 0 1-7.55 3.13l-.19.02v-2.2a.86.86 0 0 0-1.71 0v2.21l-.19-.02a13.31 13.31 0 0 1-7.62-3.06l-.15-.13 1.61-1.58a.8.8 0 0 0 .25-.6.8.8 0 0 0-.25-.59.88.88 0 0 0-1.21 0l-1.61 1.59-.12-.15a12.82 12.82 0 0 1-3.18-7.5l-.01-.18h2.3c.47 0 .85-.38.85-.85a.85.85 0 0 0-.85-.84h-2.3l.01-.19a12.87 12.87 0 0 1 3.19-7.48l.12-.14 1.6 1.57c.32.32.89.32 1.21 0a.8.8 0 0 0 .25-.59.8.8 0 0 0-.25-.6l-1.59-1.57.15-.12a13.38 13.38 0 0 1 17.22.07l.15.12-1.53 1.5a.84.84 0 0 0 0 1.19c.32.32.89.32 1.21 0L25 14.66l.12.14a12.8 12.8 0 0 1 3.12 7.4l.01.19h-2.14a.85.85 0 0 0-.86.84c0 .47.38.85.86.85h2.15l-.02.18a12.9 12.9 0 0 1-3.1 7.42l-.13.15zM11.24 4.16c0-.82.68-1.48 1.5-1.48h4.56c.83 0 1.51.66 1.51 1.48v2.09h1.71V4.16A3.2 3.2 0 0 0 17.3.99h-4.56a3.2 3.2 0 0 0-3.21 3.17v2.09h1.71zm16.88 7.56l.19.21 1.33-1.09-.2-.23a19.25 19.25 0 0 0-3.47-3.01l-.25-.17-.93 1.44.23.16c1.14.77 2.19 1.68 3.1 2.69zm-12.11 8.11l-.13-.03v-6.32a.85.85 0 0 0-.86-.85.85.85 0 0 0-.85.85v6.32l-.13.03a3.59 3.59 0 0 0-2.63 3.42 3.57 3.57 0 0 0 2.63 3.41l.13.04v1.68c0 .47.38.85.85.85.48 0 .86-.38.86-.85V26.7l.13-.04a3.57 3.57 0 0 0 2.62-3.41 3.59 3.59 0 0 0-2.62-3.42zm.91 3.42a1.8 1.8 0 0 1-.76 1.48c-.67.51-1.6.51-2.27 0a1.83 1.83 0 0 1 0-2.97 1.88 1.88 0 0 1 2.27 0c.49.36.76.9.76 1.49z"/></svg>