<svg xmlns="http://www.w3.org/2000/svg" width="40" height="28" viewBox="0 0 40 28"><path fill="#757371" d="M23.86 26.38H10.68a.81.81 0 0 0-.82.8c0 .45.37.81.82.81h13.18c.46 0 .83-.36.83-.81 0-.44-.37-.8-.83-.8zm3.35-21.45a.85.85 0 0 0-1.13.29l-5.16 8.69-2.63-2.22a.85.85 0 0 0-1.13.05l-3 3.08-2.5-3.51a.84.84 0 0 0-.7-.35.84.84 0 0 0-.67.39L6.2 17.97a.79.79 0 0 0-.1.61c.06.21.19.38.38.5a.9.9 0 0 0 .42.11.8.8 0 0 0 .7-.39l3.43-5.55 2.34 3.3c.1.14.3.32.68.35.22 0 .43-.09.59-.25l3.15-3.24 2.8 2.36c.18.15.43.22.67.18a.81.81 0 0 0 .57-.39l5.66-9.53c.11-.18.14-.4.09-.61a.8.8 0 0 0-.38-.49zm-1.29 17.38l-.08-.1H3.8a2.14 2.14 0 0 1-2.15-2.11V3.74c0-1.17.96-2.12 2.15-2.12h26.94c1.19 0 2.15.95 2.15 2.12v5.72l.25.04c.34.05.7.12 1.04.22l.36.11V3.74c0-2.06-1.7-3.74-3.8-3.74H3.8C1.7 0 0 1.68 0 3.74V20.1c0 2.05 1.7 3.73 3.8 3.73h23.8l-.62-.5c-.38-.3-.74-.65-1.06-1.02zm13.84 1.32l-3.03-2.98.08-.11a5.68 5.68 0 0 0 1.06-3.3 5.83 5.83 0 0 0-5.88-5.77 5.83 5.83 0 0 0-5.88 5.77A5.83 5.83 0 0 0 32 23.02c1.25 0 2.45-.39 3.47-1.13l.12-.08 3.02 2.96c.15.15.36.24.58.24a.8.8 0 0 0 .58-.24.8.8 0 0 0 0-1.14zm-3.54-6.39A4.2 4.2 0 0 1 32 21.41a4.2 4.2 0 0 1-4.24-4.17A4.2 4.2 0 0 1 32 13.08a4.2 4.2 0 0 1 4.23 4.16z"/></svg>