<svg xmlns="http://www.w3.org/2000/svg" width="36" height="31" viewBox="0 0 36 31"><path fill="#757371" d="M20.25 25.39v-2.3h-1.53v2.33l-5.02 4.1a.75.75 0 0 0-.1 1.07c.15.17.37.27.6.27.12 0 .3-.03.48-.18l4.04-3.3v2.78a.76.76 0 0 0 1.53 0v-2.81l4.07 3.33a.75.75 0 0 0 1.08-.1.75.75 0 0 0-.1-1.06zM34.25.8H11.17l.21.38c.17.3.31.62.42.95l.06.17h19.89v15.39a2 2 0 0 1-2.01 1.98H12.24v-6.31a3.6 3.6 0 0 0-3.58-3.53H3.58a3.65 3.65 0 0 0-2.95 1.53 3.46 3.46 0 0 0-.63 2v6.6a3.47 3.47 0 0 0 1.55 2.91c.3.19.62.35.95.45l.11.04V31h1.53v-9.02h-.56a2.1 2.1 0 0 1-.94-.23 2.01 2.01 0 0 1-1.12-1.79v-6.6c0-1.12.92-2.02 2.06-2.02h5.07c1.14 0 2.06.9 2.06 2.02v6.6a2.02 2.02 0 0 1-1.14 1.8c-.3.14-.6.22-.92.22H8.1V31h1.53v-7.64l.1-.04a3.63 3.63 0 0 0 2.25-2.05l.04-.09h17.74a3.52 3.52 0 0 0 3.54-3.49V2.3h.95c.42 0 .77-.33.77-.75a.75.75 0 0 0-.77-.75zM6.11 8a4.03 4.03 0 0 0 4.05-4c0-2.2-1.82-4-4.05-4a4.04 4.04 0 0 0-4.06 4c0 2.21 1.82 4 4.06 4zM3.59 4a2.51 2.51 0 0 1 2.53-2.49C7.5 1.51 8.64 2.63 8.64 4c0 1.38-1.13 2.5-2.52 2.5A2.52 2.52 0 0 1 3.59 4z"/></svg>