<svg xmlns="http://www.w3.org/2000/svg" width="35" height="34" viewBox="0 0 35 34"><path fill="#757371" d="M5.77 5.61a1.12 1.12 0 1 0 2.24 0 1.12 1.12 0 0 0-2.24 0zm4.47 0a1.12 1.12 0 1 0 2.24 0 1.12 1.12 0 0 0-2.24 0zm-4.47 9.64a1.12 1.12 0 1 0 2.24 0 1.12 1.12 0 0 0-2.24 0zm4.47 0a1.12 1.12 0 1 0 2.24 0 1.12 1.12 0 0 0-2.24 0zm-4.47 9.66a1.12 1.12 0 1 0 2.24 0c0-.62-.5-1.13-1.12-1.13-.61 0-1.12.51-1.12 1.13zm4.47 0a1.12 1.12 0 1 0 2.24 0c0-.62-.5-1.13-1.12-1.13-.62 0-1.12.51-1.12 1.13zm-5.4 5.67h10.34l.2-1.67H4.84c-1.2 0-2.18-.98-2.18-2.19v-5.78h15.2l1-1.67H2.66V11.3h21l1-1.67h-22V3.85c0-1.2.98-2.18 2.18-2.18h19.74c1.2 0 2.18.98 2.18 2.18v4.23l1.66 1.02V3.85A3.85 3.85 0 0 0 24.58 0H4.84A3.85 3.85 0 0 0 .99 3.85v22.87a3.86 3.86 0 0 0 3.85 3.86zm13.55-5.76c-.06.1-.1.22-.11.33l-.92 7.92a.84.84 0 0 0 .83.93c.16 0 .3-.05.44-.13l6.57-4.17c.1-.07.2-.17.27-.28l6.27-10.43-1.43-.86-5.2 8.66-4.37-2.64 6.59-10.96 5.81 3.51.86-1.43-7.21-4.41zm1.01 5.09l.5-4.31 4.43 2.67-3.71 2.36z"/></svg>