<svg xmlns="http://www.w3.org/2000/svg" width="31" height="28" viewBox="0 0 31 28"><path fill="#757371" d="M9.54 26.47H4.97a.76.76 0 0 0-.75.76c0 .43.34.77.75.77h4.57c.42 0 .76-.34.76-.77a.76.76 0 0 0-.76-.76zm16.49 0h-4.57a.76.76 0 0 0-.75.76c0 .43.34.77.75.77h4.57c.42 0 .75-.34.75-.77a.75.75 0 0 0-.75-.76zM27.64 0H3.36A3.38 3.38 0 0 0 .01 3.41v17.81c0 1.88 1.5 3.41 3.35 3.41h24.28A3.4 3.4 0 0 0 31 21.22V3.41A3.4 3.4 0 0 0 27.64 0zm1.85 3.41v17.81c0 1.04-.83 1.88-1.85 1.88H3.36a1.87 1.87 0 0 1-1.85-1.88V3.41c0-1.04.83-1.88 1.85-1.88h24.28c1.02 0 1.85.84 1.85 1.88zM6 10V8H4v2zm0 3v-2H4v2zm0 4v-2H4v2zm4-7V8H8v2zm0 3v-2H8v2zm0 4v-2H8v2zm3-7V8h-2v2zm0 3v-2h-2v2zm0 4v-2h-2v2zm8.47-10.2a5.31 5.31 0 0 0-5.27 5.35 5.31 5.31 0 0 0 5.27 5.35c2.9 0 5.27-2.4 5.27-5.35a5.32 5.32 0 0 0-5.27-5.35zm0 9.17a3.8 3.8 0 0 1-3.76-3.82 3.8 3.8 0 0 1 3.76-3.81 3.8 3.8 0 0 1 3.76 3.81 3.8 3.8 0 0 1-3.76 3.82zm.28-5.25l-1.67 1.83c-.28.31-.26.8.04 1.08.14.13.32.21.52.21s.41-.09.55-.25l1.67-1.83a.78.78 0 0 0-.05-1.09.77.77 0 0 0-1.06.05z"/></svg>