<svg xmlns="http://www.w3.org/2000/svg" width="31" height="39" viewBox="0 0 31 39"><path fill="#757371" d="M17.04 8.53l-.16-.01V5.23h-1.71v3.29l-.17.01c-7.85.5-14 6.97-14 14.72a14.9 14.9 0 0 0 15 14.76c8.27 0 15-6.62 15-14.76A14.9 14.9 0 0 0 17.05 8.53zm7.44 21.79a.88.88 0 0 0-1.21 0 .83.83 0 0 0 0 1.19l1.54 1.51-.14.12a13.23 13.23 0 0 1-7.55 3.13l-.2.02v-2.2a.85.85 0 0 0-.85-.84.85.85 0 0 0-.85.84v2.21l-.2-.02a13.32 13.32 0 0 1-7.61-3.06l-.15-.13 1.61-1.58a.84.84 0 0 0 0-1.19.88.88 0 0 0-1.2 0l-1.62 1.59-.12-.15a12.82 12.82 0 0 1-3.18-7.5l-.01-.18h2.3c.47 0 .85-.38.85-.85a.85.85 0 0 0-.85-.84h-2.3l.02-.18a12.86 12.86 0 0 1 3.18-7.49l.12-.14 1.6 1.57c.32.32.89.32 1.21 0a.83.83 0 0 0 0-1.19l-1.6-1.57.16-.12a13.4 13.4 0 0 1 17.22.07l.15.12-1.53 1.5a.83.83 0 0 0 0 1.19c.32.32.89.32 1.2 0L26 14.66l.12.14c1.82 2.1 2.9 4.66 3.12 7.41l.01.18h-2.14a.85.85 0 0 0-.86.84c0 .47.38.85.86.85h2.14v.18a12.85 12.85 0 0 1-3.11 7.42l-.13.15zM12.24 4.16c0-.82.67-1.48 1.5-1.48h4.56c.83 0 1.5.66 1.5 1.48v2.09h1.72V4.16A3.2 3.2 0 0 0 18.3.99h-4.55a3.2 3.2 0 0 0-3.22 3.17v2.09h1.71zm16.88 7.56l.2.21 1.32-1.09-.2-.23a19.6 19.6 0 0 0-3.47-3.01l-.25-.17-.93 1.44.23.16c1.14.77 2.19 1.68 3.1 2.69zm-12.11 8.11l-.13-.03v-6.33a.85.85 0 0 0-.86-.84.85.85 0 0 0-.85.84v6.33l-.13.03a3.58 3.58 0 0 0-2.63 3.42 3.57 3.57 0 0 0 2.63 3.41l.13.04v1.68a.85.85 0 0 0 1.71 0V26.7l.13-.04a3.57 3.57 0 0 0 2.62-3.41 3.59 3.59 0 0 0-2.62-3.42zm.91 3.42c0 .58-.27 1.13-.76 1.48a1.9 1.9 0 0 1-3.04-1.48c0-.59.28-1.13.77-1.49a1.89 1.89 0 0 1 2.27 0c.49.36.76.9.76 1.49z"/></svg>