<svg xmlns="http://www.w3.org/2000/svg" width="80" height="32" viewBox="0 0 80 32"><path fill="#fff" d="M5.11.8c-.6-.53-1.3-.8-2.1-.8C2.2 0 1.5.28.9.8.3 1.31 0 2.03 0 2.95c0 .92.3 1.64.9 2.17.59.52 1.29.79 2.1.79.8 0 1.5-.27 2.1-.8.6-.52.9-1.24.9-2.16 0-.92-.3-1.64-.9-2.17zm.42 7.27H.52v17.67h5.01zm3.3 17.67h5.01V12.1a18.8 18.8 0 0 1 2.22-.17c1.17 0 1.97.34 2.4 1 .42.68.63 1.82.63 3.43v9.38h5.01v-9.98c0-1.21-.12-2.3-.37-3.3a6.46 6.46 0 0 0-1.24-2.54 5.62 5.62 0 0 0-2.37-1.67c-1-.39-2.25-.59-3.75-.59-1.49 0-2.9.1-4.24.32-1.35.21-2.45.45-3.3.7zm18.4 0h5.02V12.1a19.02 19.02 0 0 1 2.22-.17c1.17 0 1.96.34 2.39 1 .42.68.64 1.82.64 3.43v9.38h5.01v-9.98c0-1.21-.12-2.3-.37-3.3a6.42 6.42 0 0 0-1.25-2.54 5.61 5.61 0 0 0-2.37-1.67c-1-.39-2.25-.59-3.75-.59-1.48 0-2.9.1-4.24.32-1.34.21-2.44.45-3.3.7zm34.33-12.67a8 8 0 0 0-4.53-4.8 8.98 8.98 0 0 0-3.52-.68 8.9 8.9 0 0 0-3.48.68 8.16 8.16 0 0 0-4.58 4.8c-.43 1.14-.65 2.4-.65 3.8 0 1.39.21 2.66.64 3.8a8.66 8.66 0 0 0 1.78 2.96 7.87 7.87 0 0 0 2.74 1.9c1.07.45 2.25.67 3.55.67 1.33 0 2.52-.22 3.59-.67a7.88 7.88 0 0 0 4.49-4.85c.4-1.15.6-2.42.6-3.81 0-1.4-.2-2.66-.64-3.8zm-5.4 7.47a3 3 0 0 1-2.65 1.37 3.04 3.04 0 0 1-2.65-1.37 6.35 6.35 0 0 1-.95-3.67c0-1.55.32-2.76.95-3.65a3.07 3.07 0 0 1 2.65-1.32c1.15 0 2.03.44 2.64 1.32.62.89.93 2.1.93 3.65 0 1.54-.3 2.77-.93 3.67zM67.57 8.07h-5.42l3.02 4.27 3.17 4.5a64 64 0 0 0-1.9 2.16 29.2 29.2 0 0 0-1.78 2.38 53.16 53.16 0 0 0-2.64 4.36h5.1c.24-.45.5-.93.8-1.44l.94-1.56c.31-.53.65-.97 1-1.32.35-.35.7-.67 1.03-.96.36.31.72.66 1.08 1.04.37.38.72.84 1.06 1.4.33.54.63 1.07.9 1.57l.68 1.27H80a52.48 52.48 0 0 0-6.38-9.08l6.14-8.6h-5.18l-3.52 4.96zM45.7 29.14v1.9c0 .52.43.96.97.96h13.7c.54 0 .97-.44.97-.97v-1.9a.97.97 0 0 0-.96-.96H46.67a.97.97 0 0 0-.97.97z"/></svg>